# xmcd
#
# Track frame offsets:
#	150
#	10377
#	21777
#	32885
#	45616
#	55749
#	70311
#	81777
#	92871
#	105494
#	115480
#	135323
#
# Disc length: 1960 seconds
#
# Revision: 1
# Processed by: cddbd v1.5.2PL0 Copyright (c) Steve Scherf et al.
# Submitted via: audiograbber 1.83.01
#
DISCID=9907a60c
DTITLE=Whiskey And Dynamite - Live'n' pickin'
DYEAR=1900
DGENRE=Country
TTITLE0=Bluegrass and Whiskey
TTITLE1=Fat Botton Girls
TTITLE2=You Are My Sunshine
TTITLE3=Folsom Prison Blues
TTITLE4=Thank God I'm A Countryboy 
TTITLE5=All American Bluegrass Girl
TTITLE6=Sharp Dressed Man
TTITLE7=I'm So Happy
TTITLE8=How Beautiful
TTITLE9=Grandma's Feather Bed
TTITLE10=You'll Think Of Me
TTITLE11=Behind The Scenes 
EXTD=
EXTT0=
EXTT1=
EXTT2=
EXTT3=
EXTT4=
EXTT5=
EXTT6=
EXTT7=
EXTT8=
EXTT9=
EXTT10=
EXTT11=
PLAYORDER=
